# xmcd CD database file
#
# Track frame offsets:
#	150
#	19897
#	39075
#	51650
#	63564
#	85162
#	109505
#	131048
#	155141
#	173062
#
# Disc length: 2617 seconds
#
# Revision: 0
# Processed by: cddbd v1.5.2PL0 Copyright (c) Steve Scherf et al.
# Submitted via: CDex 1.70beta2
#
DISCID=840a370a
DTITLE=mus - divina lluz
DYEAR=2003
DGENRE=Easy Listening
TTITLE0=Escuela cruda
TTITLE1=La vuelta
TTITLE2=Doxame pasar
TTITLE3=Sola
TTITLE4=Na esplanada
TTITLE5=Dinina lluz
TTITLE6=Pela xenra blanca
TTITLE7=Con un calendariu na mano
TTITLE8=A la fonte cada manana
TTITLE9=Adios
EXTD=YEAR: 2003
EXTT0=
EXTT1=
EXTT2=
EXTT3=
EXTT4=
EXTT5=
EXTT6=
EXTT7=
EXTT8=
EXTT9=
PLAYORDER=
